<svg xmlns="http://www.w3.org/2000/svg" width="512" height="512" viewBox="0 0 512 512">
  <defs>
    <linearGradient id="bg" x1="0" y1="0" x2="1" y2="1">
      <stop offset="0" stop-color="#1f1206"/>
      <stop offset=".55" stop-color="#0d1117"/>
      <stop offset="1" stop-color="#0d1117"/>
    </linearGradient>
    <radialGradient id="glow" cx="74%" cy="22%" r="62%">
      <stop offset="0" stop-color="#ff5a1f" stop-opacity=".40"/>
      <stop offset="1" stop-color="#ff5a1f" stop-opacity="0"/>
    </radialGradient>
    <linearGradient id="flame" x1="0" y1="0" x2="0" y2="1">
      <stop offset="0" stop-color="#ffb088"/>
      <stop offset=".45" stop-color="#ff8a5c"/>
      <stop offset="1" stop-color="#ff5a1f"/>
    </linearGradient>
    <linearGradient id="inner" x1="0" y1="0" x2="0" y2="1">
      <stop offset="0" stop-color="#ffd9c2"/>
      <stop offset="1" stop-color="#ff8a5c"/>
    </linearGradient>
  </defs>
  <rect width="512" height="512" fill="url(#bg)"/>
  <rect width="512" height="512" fill="url(#glow)"/>
  <!-- outer flame -->
  <path fill="url(#flame)" d="M256 146
    C 246 206, 196 240, 196 306
    C 196 360, 230 398, 256 398
    C 282 398, 316 360, 316 306
    C 316 240, 266 206, 256 146 Z"/>
  <!-- inner flame -->
  <path fill="url(#inner)" d="M256 244
    C 250 274, 228 290, 228 326
    C 228 356, 241 376, 256 376
    C 271 376, 284 356, 284 326
    C 284 290, 262 274, 256 244 Z"/>
</svg>
